# xmcd
#
# Track frame offsets:
#	150
#	19186
#	30181
#	40213
#	67431
#	79929
#	95938
#	105545
#	119087
#	133536
#	146867
#	161170
#	178732
#	196296
#
# Disc length: 2860 seconds
#
# Revision: 1
# Processed by: cddbd v1.5.2PL0 Copyright (c) Steve Scherf et al.
# Submitted via: audiograbber 1.83.01
#
DISCID=d20b2a0e
DTITLE=SALA DE REBOCO - VOL.-2 - CD-1
DYEAR=1900
DGENRE=FORRÓ
TTITLE0=JORGE DE ALTINHO - LINDA
TTITLE1=PETRÚCIO AMORIM - MINHA HOME PAGE
TTITLE2=MACIEL MELO - FACILITA
TTITLE3=JOSILDO SÁ - QUIXABINHA
TTITLE4=IRAH CALDEIRA - ATÉ MAIS VER
TTITLE5=NANDO COERDEL - Ó PAINHO
TTITLE6=ALCYMAR MONTEIRO - ROSAS DO VENTO
TTITLE7=SANTANNA - QUANDO CHEGA O VERÃO
TTITLE8=NÁDIA MAIA - ANJO PROTETOR
TTITLE9=ALMIR ROUCHE - BAIÃO DA GAROA
TTITLE10=GENIVAL LACERDA - MATE O VÉIO MATE
TTITLE11=AMAZAN - É HOJE QUE SÓ CHEGO AMANHÃ
TTITLE12=CRISTINA AMARAL - CIDADE GRANDE
TTITLE13=ADELMÁRIO COELHO - BAHIA, FORRÓ E FOLIA
EXTD=
EXTT0=
EXTT1=
EXTT2=
EXTT3=
EXTT4=
EXTT5=
EXTT6=
EXTT7=
EXTT8=
EXTT9=
EXTT10=
EXTT11=
EXTT12=
EXTT13=
PLAYORDER=
